<svg width="34" height="34" viewBox="0 0 34 34" fill="none" xmlns="http://www.w3.org/2000/svg">
<g clip-path="url(#clip0_5361_3836)">
<path d="M34 16.8937V27.625C34 31.1313 31.1313 34 27.625 34H17C16.6812 34 16.4688 34 16.15 34C7.225 33.575 0 26.1375 0 17C0 7.65 7.65 0 17 0C26.35 0 34 7.54375 34 16.8937Z" fill="#D85151"/>
<path fill-rule="evenodd" clip-rule="evenodd" d="M16.9991 13.2578C13.8985 13.2578 11.3442 15.8121 11.3442 18.9126C11.3442 22.0132 13.8985 24.5675 16.9991 24.5675C20.0996 24.5675 22.6539 22.0132 22.6539 18.9126C22.6539 15.8121 20.0996 13.2578 16.9991 13.2578ZM7.56641 18.9126C7.56641 13.7257 11.8121 9.47998 16.9991 9.47998C22.186 9.47998 26.4317 13.7257 26.4317 18.9126C26.4317 20.827 25.8534 22.6132 24.8628 24.1051L27.2597 26.502C27.9974 27.2396 27.9974 28.4356 27.2597 29.1733C26.5221 29.911 25.3261 29.911 24.5884 29.1733L22.1915 26.7764C20.6997 27.767 18.9135 28.3453 16.9991 28.3453C11.8121 28.3453 7.56641 24.0996 7.56641 18.9126Z" fill="black" fill-opacity="0.05"/>
<path fill-rule="evenodd" clip-rule="evenodd" d="M16.8942 10.1527C13.1712 10.1527 10.1532 13.1707 10.1532 16.8937C10.1532 20.6166 13.1712 23.6347 16.8942 23.6347C20.6171 23.6347 23.6352 20.6166 23.6352 16.8937C23.6352 13.1707 20.6171 10.1527 16.8942 10.1527ZM6.84766 16.8937C6.84766 11.3451 11.3456 6.84717 16.8942 6.84717C22.4427 6.84717 26.9407 11.3451 26.9407 16.8937C26.9407 22.4422 22.4427 26.9402 16.8942 26.9402C11.3456 26.9402 6.84766 22.4422 6.84766 16.8937Z" fill="white"/>
<path fill-rule="evenodd" clip-rule="evenodd" d="M22.5271 22.5251C23.1725 21.8797 24.219 21.8797 24.8644 22.5251L28.0519 25.7126C28.6974 26.358 28.6974 27.4045 28.0519 28.05C27.4065 28.6954 26.36 28.6954 25.7146 28.05L22.5271 24.8625C21.8816 24.217 21.8816 23.1705 22.5271 22.5251Z" fill="white"/>
<path d="M23.1648 14.6622C25.2773 14.6622 26.9898 12.9497 26.9898 10.8372C26.9898 8.72472 25.2773 7.01221 23.1648 7.01221C21.0524 7.01221 19.3398 8.72472 19.3398 10.8372C19.3398 12.9497 21.0524 14.6622 23.1648 14.6622Z" fill="white"/>
<path fill-rule="evenodd" clip-rule="evenodd" d="M23.1636 8.42907C21.8335 8.42907 20.7552 9.50731 20.7552 10.8374C20.7552 12.1675 21.8335 13.2457 23.1636 13.2457C24.4936 13.2457 25.5719 12.1675 25.5719 10.8374C25.5719 9.50731 24.4936 8.42907 23.1636 8.42907ZM17.9219 10.8374C17.9219 7.94249 20.2687 5.5957 23.1636 5.5957C26.0585 5.5957 28.4052 7.94248 28.4052 10.8374C28.4052 13.7323 26.0585 16.0791 23.1636 16.0791C20.2687 16.0791 17.9219 13.7323 17.9219 10.8374Z" fill="#D85151"/>
</g>
<defs>
<clipPath id="clip0_5361_3836">
<rect width="34" height="34" fill="white"/>
</clipPath>
</defs>
</svg>
