<svg width="116" height="56" viewBox="0 0 116 56" fill="none" xmlns="http://www.w3.org/2000/svg">
<g clip-path="url(#clip0_5311_12104)">
<path d="M34 27.8937V38.625C34 42.1313 31.1313 45 27.625 45H17C16.6812 45 16.4688 45 16.15 45C7.225 44.575 0 37.1375 0 28C0 18.65 7.65 11 17 11C26.35 11 34 18.5437 34 27.8937Z" fill="#D85151"/>
<path fill-rule="evenodd" clip-rule="evenodd" d="M17 24.2576C13.8995 24.2576 11.3452 26.8119 11.3452 29.9124C11.3452 33.0129 13.8995 35.5672 17 35.5672C20.1006 35.5672 22.6549 33.0129 22.6549 29.9124C22.6549 26.8119 20.1006 24.2576 17 24.2576ZM7.56738 29.9124C7.56738 24.7254 11.8131 20.4797 17 20.4797C22.187 20.4797 26.4327 24.7254 26.4327 29.9124C26.4327 31.8268 25.8544 33.613 24.8638 35.1048L27.2607 37.5017C27.9984 38.2394 27.9984 39.4354 27.2607 40.1731C26.523 40.9107 25.327 40.9107 24.5894 40.1731L22.1925 37.7761C20.7006 38.7667 18.9145 39.3451 17 39.3451C11.8131 39.3451 7.56738 35.0994 7.56738 29.9124Z" fill="black" fill-opacity="0.05"/>
<path fill-rule="evenodd" clip-rule="evenodd" d="M16.8937 21.1527C13.1707 21.1527 10.1527 24.1707 10.1527 27.8937C10.1527 31.6166 13.1707 34.6347 16.8937 34.6347C20.6166 34.6347 23.6347 31.6166 23.6347 27.8937C23.6347 24.1707 20.6166 21.1527 16.8937 21.1527ZM6.84717 27.8937C6.84717 22.3451 11.3451 17.8472 16.8937 17.8472C22.4422 17.8472 26.9402 22.3451 26.9402 27.8937C26.9402 33.4422 22.4422 37.9402 16.8937 37.9402C11.3451 37.9402 6.84717 33.4422 6.84717 27.8937Z" fill="white"/>
<path fill-rule="evenodd" clip-rule="evenodd" d="M22.5251 33.5251C23.1705 32.8797 24.217 32.8797 24.8625 33.5251L28.05 36.7126C28.6954 37.358 28.6954 38.4045 28.05 39.05C27.4045 39.6954 26.358 39.6954 25.7126 39.05L22.5251 35.8625C21.8797 35.217 21.8797 34.1705 22.5251 33.5251Z" fill="white"/>
<path d="M23.1624 25.6625C25.2749 25.6625 26.9874 23.9499 26.9874 21.8375C26.9874 19.725 25.2749 18.0125 23.1624 18.0125C21.0499 18.0125 19.3374 19.725 19.3374 21.8375C19.3374 23.9499 21.0499 25.6625 23.1624 25.6625Z" fill="white"/>
<path fill-rule="evenodd" clip-rule="evenodd" d="M23.1626 19.4291C21.8325 19.4291 20.7543 20.5073 20.7543 21.8374C20.7543 23.1675 21.8325 24.2457 23.1626 24.2457C24.4927 24.2457 25.5709 23.1675 25.5709 21.8374C25.5709 20.5073 24.4927 19.4291 23.1626 19.4291ZM17.9209 21.8374C17.9209 18.9425 20.2677 16.5957 23.1626 16.5957C26.0575 16.5957 28.4043 18.9425 28.4043 21.8374C28.4043 24.7323 26.0575 27.0791 23.1626 27.0791C20.2677 27.0791 17.9209 24.7323 17.9209 21.8374Z" fill="#D85151"/>
</g>
<path d="M43.7216 37V19.5455H54.9034V22.196H46.8835V26.9347H54.1364V29.5852H46.8835V37H43.7216ZM57.6477 37V23.9091H60.733V37H57.6477ZM59.1989 22.0511C58.7102 22.0511 58.2898 21.8892 57.9375 21.5653C57.5852 21.2358 57.4091 20.8409 57.4091 20.3807C57.4091 19.9148 57.5852 19.5199 57.9375 19.196C58.2898 18.8665 58.7102 18.7017 59.1989 18.7017C59.6932 18.7017 60.1136 18.8665 60.4602 19.196C60.8125 19.5199 60.9886 19.9148 60.9886 20.3807C60.9886 20.8409 60.8125 21.2358 60.4602 21.5653C60.1136 21.8892 59.6932 22.0511 59.1989 22.0511ZM66.9908 29.3295V37H63.9055V23.9091H66.8544V26.1335H67.0078C67.3089 25.4006 67.7891 24.8182 68.4482 24.3864C69.1129 23.9545 69.9339 23.7386 70.9112 23.7386C71.8146 23.7386 72.6016 23.9318 73.272 24.3182C73.9482 24.7045 74.4709 25.2642 74.8402 25.9972C75.2152 26.7301 75.3999 27.6193 75.3942 28.6648V37H72.3089V29.142C72.3089 28.267 72.0817 27.5824 71.6271 27.0881C71.1783 26.5937 70.5561 26.3466 69.7607 26.3466C69.2209 26.3466 68.7408 26.4659 68.3203 26.7045C67.9055 26.9375 67.5788 27.2756 67.3402 27.7188C67.1072 28.1619 66.9908 28.6989 66.9908 29.3295ZM83.3885 37.2301C82.3601 37.2301 81.4396 36.9659 80.6271 36.4375C79.8146 35.9091 79.1726 35.142 78.701 34.1364C78.2294 33.1307 77.9936 31.9091 77.9936 30.4716C77.9936 29.017 78.2322 27.7898 78.7095 26.7898C79.1925 25.7841 79.843 25.0256 80.6612 24.5142C81.4794 23.9972 82.3913 23.7386 83.397 23.7386C84.1641 23.7386 84.7947 23.8693 85.2891 24.1307C85.7834 24.3864 86.1754 24.696 86.4652 25.0597C86.755 25.4176 86.9794 25.7557 87.1385 26.0739H87.2663V19.5455H90.3601V37H87.326V34.9375H87.1385C86.9794 35.2557 86.7493 35.5937 86.4482 35.9517C86.147 36.304 85.7493 36.6051 85.255 36.8551C84.7607 37.1051 84.1385 37.2301 83.3885 37.2301ZM84.2493 34.6989C84.9027 34.6989 85.4595 34.5227 85.9197 34.1705C86.38 33.8125 86.7294 33.3153 86.968 32.679C87.2067 32.0426 87.326 31.3011 87.326 30.4545C87.326 29.608 87.2067 28.8722 86.968 28.2472C86.7351 27.6222 86.3885 27.1364 85.9283 26.7898C85.4737 26.4432 84.9141 26.2699 84.2493 26.2699C83.5618 26.2699 82.9879 26.4489 82.5277 26.8068C82.0675 27.1648 81.7209 27.6591 81.4879 28.2898C81.255 28.9205 81.1385 29.642 81.1385 30.4545C81.1385 31.2727 81.255 32.0028 81.4879 32.6449C81.7266 33.2812 82.076 33.7841 82.5362 34.1534C83.0021 34.517 83.5732 34.6989 84.2493 34.6989ZM99.4432 37.2557C98.1307 37.2557 96.9972 36.983 96.0426 36.4375C95.0938 35.8864 94.3636 35.108 93.8523 34.1023C93.3409 33.0909 93.0852 31.9006 93.0852 30.5312C93.0852 29.1847 93.3409 28.0028 93.8523 26.9858C94.3693 25.9631 95.0909 25.1676 96.017 24.5994C96.9432 24.0256 98.0312 23.7386 99.2812 23.7386C100.088 23.7386 100.849 23.8693 101.565 24.1307C102.287 24.3864 102.923 24.7841 103.474 25.3239C104.031 25.8636 104.469 26.5511 104.787 27.3864C105.105 28.2159 105.264 29.2045 105.264 30.3523V31.2983H94.5341V29.2188H102.307C102.301 28.6278 102.173 28.1023 101.923 27.642C101.673 27.1761 101.324 26.8097 100.875 26.5426C100.432 26.2756 99.9148 26.142 99.3239 26.142C98.6932 26.142 98.1392 26.2955 97.6619 26.6023C97.1847 26.9034 96.8125 27.3011 96.5455 27.7955C96.2841 28.2841 96.1506 28.821 96.1449 29.4062V31.2216C96.1449 31.983 96.2841 32.6364 96.5625 33.1818C96.8409 33.7216 97.2301 34.1364 97.7301 34.4261C98.2301 34.7102 98.8153 34.8523 99.4858 34.8523C99.9347 34.8523 100.341 34.7898 100.705 34.6648C101.068 34.5341 101.384 34.3438 101.651 34.0938C101.918 33.8438 102.119 33.5341 102.256 33.1648L105.136 33.4886C104.955 34.25 104.608 34.9148 104.097 35.483C103.591 36.0455 102.943 36.483 102.153 36.7955C101.364 37.1023 100.46 37.2557 99.4432 37.2557ZM107.874 37V23.9091H110.866V26.0909H111.002C111.241 25.3352 111.65 24.7528 112.229 24.3438C112.815 23.929 113.482 23.7216 114.232 23.7216C114.403 23.7216 114.593 23.7301 114.803 23.7472C115.019 23.7585 115.198 23.7784 115.34 23.8068V26.6449C115.21 26.5994 115.002 26.5597 114.718 26.5256C114.44 26.4858 114.17 26.4659 113.908 26.4659C113.346 26.4659 112.84 26.5881 112.391 26.8324C111.948 27.071 111.599 27.4034 111.343 27.8295C111.087 28.2557 110.96 28.7472 110.96 29.304V37H107.874Z" fill="#111827"/>
<defs>
<clipPath id="clip0_5311_12104">
<rect width="34" height="34" fill="white" transform="translate(0 11)"/>
</clipPath>
</defs>
</svg>
